# xmcd CD database file
#
# Track frame offsets:
#	150
#	9525
#	23175
#	38895
#	58081
#	76944
#	88540
#	99377
#	120826
#	137770
#	162198
#	179837
#	195787
#
# Disc length: 2791 seconds
#
# Revision: 0
# Processed by: cddbd v1.5.2PL0 Copyright (c) Steve Scherf et al.
# Submitted via: CDex 1.75
#
DISCID=990ae50d
DTITLE=Roland Hanna - Plays The Music Of Alec Wilder
DYEAR=1980
DGENRE=Jazz
TTITLE0=You're Free
TTITLE1=Moon And Sand
TTITLE2=Mimosa And Me
TTITLE3=Ellen
TTITLE4=Blackberry Winter
TTITLE5=The Starlighter
TTITLE6=The Star Wish
TTITLE7=It's So Peaceful In The Country
TTITLE8=While We're Young
TTITLE9=I'll Be Around
TTITLE10=That's My Girl
TTITLE11=Sounds Around The House
TTITLE12=Remember My Child
EXTD=YEAR: 1980
EXTT0=
EXTT1=
EXTT2=
EXTT3=
EXTT4=
EXTT5=
EXTT6=
EXTT7=
EXTT8=
EXTT9=
EXTT10=
EXTT11=
EXTT12=
PLAYORDER=
